<svg id="Capa_1" data-name="Capa 1" xmlns="http://www.w3.org/2000/svg" viewBox="0 0 640 175"><defs><style>.cls-1{fill:#fff;}</style></defs><title>limoneno_logo</title><path class="cls-1" d="M92.75,66.7v55.16h30.71V103.48a3.44,3.44,0,0,1,.66-2.37,2.21,2.21,0,0,1,1.71-.72,2.19,2.19,0,0,1,1.65.69,3.45,3.45,0,0,1,.66,2.4v23H77.06a3.41,3.41,0,0,1-2.37-.66,2.31,2.31,0,0,1,0-3.33,3.58,3.58,0,0,1,2.37-.63h11V66.7h-11a3.58,3.58,0,0,1-2.37-.63A2.15,2.15,0,0,1,74,64.39a2.18,2.18,0,0,1,.71-1.68,3.58,3.58,0,0,1,2.37-.63h26.7a3.53,3.53,0,0,1,2.36.63,2.15,2.15,0,0,1,.72,1.68,2.12,2.12,0,0,1-.72,1.68,3.53,3.53,0,0,1-2.36.63Z"/><path class="cls-1" d="M162.52,78.81v43.05h18.16a3.69,3.69,0,0,1,2.43.63,2.31,2.31,0,0,1,0,3.33,3.52,3.52,0,0,1-2.43.66h-41a3.41,3.41,0,0,1-2.37-.66,2.31,2.31,0,0,1,0-3.33,3.58,3.58,0,0,1,2.37-.63h18.16V83.49H144.41a3.59,3.59,0,0,1-2.4-.66,2.13,2.13,0,0,1-.74-1.65,2.21,2.21,0,0,1,.72-1.7,3.47,3.47,0,0,1,2.42-.67Zm-.17-20.72V64a3,3,0,0,1-3,3h-.82a3,3,0,0,1-3-3V58.09a3,3,0,0,1,3-3h.82A3,3,0,0,1,162.35,58.09Z"/><path class="cls-1" d="M203.94,78.81v4.68q5.9-6.33,11.83-6.33a10.67,10.67,0,0,1,6.28,1.9,14.3,14.3,0,0,1,4.51,5.75,24.51,24.51,0,0,1,6.25-5.75,12.32,12.32,0,0,1,6.36-1.9,10.3,10.3,0,0,1,8,3.25,13.14,13.14,0,0,1,3.91,9.14v32.31H255a3.53,3.53,0,0,1,2.36.63,2.29,2.29,0,0,1,0,3.33,3.36,3.36,0,0,1-2.36.66h-8.53V90a8.27,8.27,0,0,0-2.15-5.84,6.58,6.58,0,0,0-5-2.31,9.71,9.71,0,0,0-5.34,1.9q-2.81,1.91-6.38,7.46v30.66h3.85a3.58,3.58,0,0,1,2.37.63,2.29,2.29,0,0,1,0,3.33,3.41,3.41,0,0,1-2.37.66h-8.53V90.32a8.68,8.68,0,0,0-2.17-6.08,6.48,6.48,0,0,0-4.87-2.4,8.76,8.76,0,0,0-4.9,1.6q-3.36,2.25-7.05,7.76v30.66h3.91a3.58,3.58,0,0,1,2.37.63,2.31,2.31,0,0,1,0,3.33,3.41,3.41,0,0,1-2.37.66H195.41a3.41,3.41,0,0,1-2.37-.66,2.29,2.29,0,0,1,0-3.33,3.58,3.58,0,0,1,2.37-.63h3.91V83.49h-3.91a3.46,3.46,0,0,1-2.37-.66,2.21,2.21,0,0,1-.72-1.7,2.15,2.15,0,0,1,.72-1.65,3.41,3.41,0,0,1,2.37-.67Z"/><path class="cls-1" d="M339.43,78.81v7A33.34,33.34,0,0,1,348.18,79,20.23,20.23,0,0,1,357,77.16a20.65,20.65,0,0,1,9.63,2.26,15.86,15.86,0,0,1,5.59,5.48,14.13,14.13,0,0,1,2.5,7.84v29.12h3.91a3.58,3.58,0,0,1,2.37.63,2.31,2.31,0,0,1,0,3.33,3.41,3.41,0,0,1-2.37.66H366.24a3.52,3.52,0,0,1-2.43-.66,2.31,2.31,0,0,1,0-3.33,3.69,3.69,0,0,1,2.43-.63h3.85V93.51a10.94,10.94,0,0,0-3.58-8.28q-3.58-3.39-9.58-3.39A16.18,16.18,0,0,0,349,83.69q-3.36,1.84-9.58,9.16v29h5.23a3.53,3.53,0,0,1,2.36.63,2.29,2.29,0,0,1,0,3.33,3.36,3.36,0,0,1-2.36.66H329.57a3.36,3.36,0,0,1-2.36-.66,2.29,2.29,0,0,1,0-3.33,3.53,3.53,0,0,1,2.36-.63h5.23V83.49h-3.9a3.43,3.43,0,0,1-2.37-.66,2.21,2.21,0,0,1-.72-1.7,2.15,2.15,0,0,1,.72-1.65,3.37,3.37,0,0,1,2.37-.67Z"/><path class="cls-1" d="M442,103.75H394.89a22.36,22.36,0,0,0,7.51,14.45,22.94,22.94,0,0,0,15.6,5.48A37.58,37.58,0,0,0,428.85,122a28,28,0,0,0,9.25-4.51,3.13,3.13,0,0,1,1.81-.83,2.06,2.06,0,0,1,1.54.69,2.23,2.23,0,0,1,.66,1.62,2.57,2.57,0,0,1-.88,1.82q-2.64,2.76-9.38,5.15A41.26,41.26,0,0,1,418,128.3q-11.88,0-19.84-7.79a25.42,25.42,0,0,1-8-18.85,23.18,23.18,0,0,1,7.46-17.29,25.54,25.54,0,0,1,18.46-7.21q11.34,0,18.66,7.41T442,103.75Zm-4.67-4.68a20.14,20.14,0,0,0-7.24-12.44,22.77,22.77,0,0,0-27.88,0,20.24,20.24,0,0,0-7.27,12.49Z"/><path class="cls-1" d="M463.55,78.81v7A33.36,33.36,0,0,1,472.31,79a20.22,20.22,0,0,1,8.8-1.87,20.66,20.66,0,0,1,9.64,2.26,15.84,15.84,0,0,1,5.58,5.48,14.15,14.15,0,0,1,2.51,7.84v29.12h3.91a3.53,3.53,0,0,1,2.36.63,2.29,2.29,0,0,1,0,3.33,3.36,3.36,0,0,1-2.36.66H490.36a3.49,3.49,0,0,1-2.42-.66,2.29,2.29,0,0,1,0-3.33,3.66,3.66,0,0,1,2.42-.63h3.85V93.51a11,11,0,0,0-3.57-8.28q-3.58-3.39-9.58-3.39a16.22,16.22,0,0,0-7.93,1.85q-3.36,1.84-9.58,9.16v29h5.23a3.58,3.58,0,0,1,2.37.63,2.29,2.29,0,0,1,0,3.33,3.41,3.41,0,0,1-2.37.66H453.7a3.41,3.41,0,0,1-2.37-.66,2.31,2.31,0,0,1,0-3.33,3.58,3.58,0,0,1,2.37-.63h5.23V83.49H455a3.41,3.41,0,0,1-2.36-.66,2.21,2.21,0,0,1-.72-1.7,2.15,2.15,0,0,1,.72-1.65,3.36,3.36,0,0,1,2.36-.67Z"/><path class="cls-1" d="M566,102.76a24.44,24.44,0,0,1-7.57,18,26.05,26.05,0,0,1-36.58,0,25.39,25.39,0,0,1,0-36.11,26,26,0,0,1,36.58,0A24.52,24.52,0,0,1,566,102.76Zm-4.68,0A20,20,0,0,0,555.15,88a21.43,21.43,0,0,0-30,0,20.7,20.7,0,0,0,0,29.53,21.36,21.36,0,0,0,30,0A20,20,0,0,0,561.34,102.76Z"/><path class="cls-1" d="M299.6,115.32l-16,.16a2.12,2.12,0,0,0-1.49.64,2.08,2.08,0,0,0-.6,1.5,2.11,2.11,0,0,0,.63,1.48,2.3,2.3,0,0,0,.44.33,2.07,2.07,0,0,0,1.06.27l16-.16a2.11,2.11,0,0,0,0-4.22Z"/><path class="cls-1" d="M319.89,103.33a3.29,3.29,0,0,0,0-3.27l-12.8-21.65,10.45-18.56a1.61,1.61,0,0,1,1.38-.81l25.19-.27a2.1,2.1,0,0,0,2.09-2.13A2.1,2.1,0,0,0,344,54.55l-21.13.22L309.58,32.5A2.11,2.11,0,0,0,306,34.67L318,54.82l-1.32,0a2.11,2.11,0,0,0-1.81,1.07L314.28,57l-12-20.1a2.11,2.11,0,0,0-3.62,2.17l12.79,21.37a1.6,1.6,0,0,1,0,1.61l-8.06,14.25-25.16.31a3.28,3.28,0,0,0-2.81,1.66l-12.62,22.4a3.29,3.29,0,0,0,0,3.27l12.78,21.61-12.1,21.37a2.11,2.11,0,0,0,.8,2.87h0a2.15,2.15,0,0,0,1.61.19,2.1,2.1,0,0,0,1.27-1l12.07-21.33,25.22-.26a3.29,3.29,0,0,0,2.81-1.67ZM302.27,123.2l-21.42.22a2.76,2.76,0,0,1-2.41-1.36l-10.9-18.43a2.77,2.77,0,0,1,0-2.77L278,82.2a2.78,2.78,0,0,1,2.38-1.41l21.42-.22a2.87,2.87,0,0,1,1.16.24l.49.29a2.76,2.76,0,0,1,.76.83l10.9,18.44a2.75,2.75,0,0,1,0,2.76l-10.51,18.66A2.78,2.78,0,0,1,302.27,123.2Z"/></svg>